<?xml version="1.0" encoding="UTF-8"?>
<svg id="Layer_1" data-name="Layer 1" xmlns="http://www.w3.org/2000/svg" viewBox="0 0 220.36 219.03">
  <defs>
    <style>
      .cls-1 {
        fill: #272425;
        font-family: MachineryScriptPERSONALUSE-Regular, 'Machinery Script PERSONAL USE';
        font-size: 48px;
      }

      .cls-2 {
        fill: none;
        stroke: #000;
        stroke-miterlimit: 10;
      }
    </style>
  </defs>
  <text class="cls-1" transform="translate(84.63 182.91)"><tspan x="0" y="0">Fudge</tspan></text>
  <path class="cls-2" d="M102.68,81.09c4.75-43.07-16.87-118.59-66.31-57.32-12.71,15.75-21.87,34.05-27.42,53.52-7.94,27.85-15.56,71.55,3.43,99.44,2.08,3.06,3.44,6.57,3.81,10.25.68,6.84,3.05,17.59,11.16,18.3,9.76.85,12.94-1.77,15.47-8.14,1.26-3.16,3.25-5.98,5.82-8.21,12.14-10.5,47.2-45.77,54.05-107.83Z"/>
  <path class="cls-2" d="M81.35,4.32c-7.46-5.05,7.92,1.72,16.16-2.83,8.24-4.55,15.88,7.6,17.86,14.94s7.21,10.24,14.38,9.67c7.17-.58,13.56,6.4,13.99,11.64s.49,13.01,11.93,17.08c11.43,4.07,12.4,19.54,12.94,26.16.53,6.62,5.08,18.19,9.25,21.74,4.17,3.55,4.9,5.71.05,34.97,0,0-4.82-18.49-8.53-23.18-3.71-4.7-3.22-8.9-19.24-14.82-16.02-5.92-18.35-3.79-25.13-19.07-6.11-13.75-2.78-16.57-14-24.33-2.64-1.83-4.46-4.64-4.99-7.81-1.92-11.48-6.13-31.6-24.65-44.14Z"/>
  <path class="cls-2" d="M71.13,1.84c-6.45,11.57-62.98,116.35-44.07,202.19.09.42.66.5.86.12,5.94-11.68,55.5-112.53,43.97-202.15-.05-.38-.56-.49-.75-.15Z"/>
  <path class="cls-2" d="M27.85,204.64C133.47,75.63,80.12,9.56,72.38,1.17c-.48-.53-1.3-.56-1.82-.07C60.64,10.23-23.77,92.58,27.01,204.54c.15.33.61.39.84.11Z"/>
  <path class="cls-2" d="M81.35,4.32s64.67,51.33,87.89,101.41"/>
  <path class="cls-2" d="M99.09,19.59s20.54,6.22,26.06,12.4"/>
  <path class="cls-2" d="M111.62,31.35s7.68,28.24,23.09,48.28"/>
  <path class="cls-2" d="M109.59,29.38s27.43,11.01,46.33,35.75"/>
  <path class="cls-2" d="M136.52,57.63s2.33,22.35,15.98,35.87"/>
  <path class="cls-2" d="M152.35,77.57s11.04,3.86,14.11,10.69"/>
</svg>